<svg width="2792" height="710" viewBox="0 0 2792 710" fill="none" xmlns="http://www.w3.org/2000/svg">
<path d="M1364.56 1.50885C1362.17 2.19312 1359.09 3.97223 1357.54 5.6145C1355.01 8.35162 1354.87 11.773 1354.17 70.3474C1353.47 134.807 1353.33 136.449 1347.15 139.597C1345.75 140.281 1334.8 140.965 1322.59 140.965C1298.16 140.965 1294.37 141.923 1289.6 149.587C1286.79 153.83 1286.79 158.62 1286.79 421.931C1286.79 687.568 1286.79 689.895 1289.6 695.232C1294.79 705.223 1292.12 704.949 1373.69 704.538C1445.14 704.128 1446.68 704.128 1450.61 701.254C1452.72 699.748 1455.25 696.327 1456.23 693.727C1458.76 686.884 1458.76 14.3733 1456.23 9.72021C1455.39 7.94104 1452.72 5.06708 1450.61 3.56165C1446.82 0.824524 1444.86 0.687683 1407.8 0.414001C1386.46 0.2771 1366.95 0.687683 1364.56 1.50885Z" fill="black"/>
<path d="M1534.28 2.05609C1531.76 3.15094 1528.39 6.0249 1526.84 8.48828L1524.03 13.0046L1524.88 353.092C1525.58 631.594 1526.14 693.863 1527.68 696.737C1531.9 704.812 1532.32 704.812 1611.07 704.812C1682.39 704.812 1682.95 704.812 1687.16 701.938C1695.72 695.916 1695.3 703.306 1695.3 544.006V397.981L1699.37 394.012L1703.44 390.043H1775.6C1845.37 390.043 1847.76 389.906 1852.25 387.306C1860.95 382.105 1860.95 381.695 1860.95 311.351C1860.95 257.429 1860.67 247.028 1858.85 243.607C1854.35 235.122 1857.58 235.396 1777.71 235.396H1704.85L1700.07 230.743L1695.3 226.089V196.392V166.694L1699.37 162.725L1703.44 158.756L1772.79 158.619C1810.84 158.619 1843.97 158.209 1846.21 157.935C1848.6 157.525 1851.97 156.293 1853.65 155.198C1860.81 150.682 1860.95 148.766 1860.95 77.8743C1860.95 18.3419 1860.67 11.636 1858.57 8.07776C1853.37 -0.407349 1862.22 0.00323486 1692.91 0.00323486C1563.76 0.140076 1538.07 0.413818 1534.28 2.05609Z" fill="black"/>
<path d="M1937.21 4.86359C1934.96 5.82158 1931.73 8.01128 1930.19 9.79041C1927.52 12.6644 1927.38 14.9909 1926.96 80.1344C1926.54 155.405 1926.54 154.447 1936.5 159.374C1941 161.564 1946.89 161.701 2012.31 161.427C2090.5 161.016 2088.82 161.153 2093.17 152.394C2095.14 148.152 2095.42 140.077 2095.7 81.0924L2095.84 14.5804L2092.61 10.201C2090.64 7.46387 2087.41 5.27417 2084.19 4.31618C2075.9 2.12648 1942.54 2.53703 1937.21 4.86359Z" fill="#E61E1E"/>
<path d="M2374.05 230.743C2372.5 231.153 2366.19 232.385 2360.01 233.48C2337.83 237.722 2307.09 251.955 2296.28 263.314C2294.31 265.23 2292.35 266.873 2291.64 266.873C2291.08 266.873 2290.52 262.219 2290.52 256.608C2290.52 250.997 2289.82 244.839 2288.84 242.923C2285.47 235.533 2284.2 235.396 2222.43 235.396C2160.81 235.396 2160.67 235.396 2155.61 242.786C2152.81 246.892 2151.96 689.895 2154.77 695.232C2155.75 697.011 2158.7 700.022 2161.23 701.664L2166 704.812H2233.24C2306.1 704.812 2307.37 704.675 2312.28 697.422C2314.53 694.137 2314.81 682.368 2315.37 546.333C2315.93 408.108 2316.21 398.665 2318.46 395.517C2322.81 389.496 2326.32 388.674 2348.22 388.674C2370.68 388.674 2376.15 389.769 2379.94 395.244C2382.33 398.802 2382.47 406.876 2383.17 546.88C2383.87 692.495 2383.87 694.958 2386.68 697.969C2393.14 704.949 2392.16 704.812 2468.38 704.812C2536.47 704.812 2539.84 704.675 2544.19 702.075C2546.58 700.706 2549.38 698.106 2550.51 696.327C2551.91 693.863 2552.33 663.208 2552.61 549.48C2552.89 458.471 2553.6 403.865 2554.44 400.718C2555.28 397.981 2557.53 394.422 2559.63 392.917C2563 390.317 2565.11 390.043 2587.99 390.043C2608.63 390.043 2613.26 390.454 2616.07 392.233C2623.51 397.296 2623.23 392.643 2623.23 546.743C2623.23 704.265 2622.8 696.601 2631.93 702.075C2636.42 704.675 2638.81 704.812 2708.44 704.812H2780.17L2784.52 701.254C2786.91 699.338 2789.58 695.506 2790.42 692.769C2791.4 689.21 2791.68 641.721 2791.26 531.689C2790.7 362.124 2790.84 366.641 2782.56 338.722C2767.54 287.675 2725.42 247.85 2672.36 234.575C2654.67 230.058 2621.12 228.553 2601.89 231.29C2568.2 235.943 2533.94 251.408 2512.04 272.073L2506.85 276.863L2495.06 265.915C2478.21 250.039 2460.24 240.596 2434.13 233.89C2425.71 231.701 2417.85 230.879 2400.02 230.606C2387.24 230.332 2375.59 230.332 2374.05 230.743Z" fill="black"/>
<path d="M969.525 232.248C921.515 236.901 886.279 248.944 848.656 273.442C816.509 294.381 786.748 326.542 769.481 358.84C735.789 421.93 731.578 494.19 757.829 559.744C777.062 607.644 811.174 646.785 858.624 675.662C883.892 690.989 912.25 701.254 945.239 707.138C966.016 710.834 1005.6 710.56 1027.92 706.591C1104.29 693.042 1170.27 644.458 1203.82 576.851C1221.51 541.543 1228.39 511.024 1228.39 469.419C1228.39 439.311 1225.58 421.93 1216.04 393.738C1208.6 371.704 1202.42 358.566 1191.61 342.691C1160.3 296.297 1115.94 262.493 1062.74 244.565C1033.82 234.711 995.356 229.648 969.525 232.248ZM1010.52 396.338C1023.29 400.444 1031.71 405.918 1041.4 415.772C1050.39 424.941 1055.72 433.563 1060.35 445.743C1064.42 456.692 1064.84 479.547 1061.34 491.453C1053.9 516.087 1034.8 535.932 1010.24 544.143C995.777 549.07 974.298 549.207 960.12 544.28C940.045 537.574 924.322 523.614 914.776 504.318C899.615 473.799 905.371 439.585 929.657 415.635C951.557 393.875 981.598 386.622 1010.52 396.338Z" fill="black"/>
<path d="M10.9968 235.669C5.66232 237.038 0.88933 242.238 0.0470375 247.85C-0.795255 253.05 9.45263 293.286 48.7596 439.311C51.1461 447.933 54.2345 459.292 55.6383 464.63C60.4113 482.284 68.4131 512.255 76.6956 544.006C92.6992 604.36 115.16 686.336 117.828 693.863C118.81 696.464 121.618 700.022 124.285 701.664L129.058 704.812H214.13C295.551 704.812 299.342 704.675 303.553 702.212C308.747 699.064 310.572 694.411 316.609 668.545C327.839 620.372 364.479 477.357 366.023 475.715C366.725 475.031 367.567 474.757 367.988 475.167C369.392 476.399 390.028 557.965 414.314 658.144C420.07 681.683 424.422 696.737 425.826 698.38C432.003 704.949 430.739 704.812 519.741 704.812H603.69L608.322 701.664C613.517 698.243 612.815 700.433 625.589 652.807C630.362 635.152 637.241 609.56 641.031 596.011C649.735 564.261 652.262 554.544 668.967 492.001C685.533 430.279 698.729 382.242 704.203 363.356C706.45 355.829 711.082 338.585 714.732 325.036C736.211 243.881 735.789 246.207 730.314 239.912L726.945 236.08L648.051 235.669C570.56 235.396 569.156 235.396 564.523 238.133C561.856 239.638 559.189 242.923 558.206 245.386C557.364 247.713 553.573 264.272 549.643 281.927C539.535 328.184 536.447 342.143 532.376 359.935C530.41 368.557 524.935 392.917 520.303 413.993C508.651 466.135 503.457 487.211 502.194 487.211C501.071 487.211 500.93 486.663 490.963 446.154C475.381 383.063 454.323 294.654 447.866 264.82C445.9 255.787 443.374 246.344 442.25 243.881C438.741 235.533 437.758 235.396 366.163 235.396H301.728L296.955 238.543C290.919 242.512 292.182 238.133 264.106 359.935C257.087 390.18 241.223 457.239 236.591 476.536C234.906 483.242 233.222 488.579 232.66 488.579C231.537 488.579 223.395 453.955 205.005 371.567C197.003 335.437 189.422 301.908 188.299 296.981C187.176 292.054 184.369 279.19 181.982 268.378C176.928 245.523 174.963 240.459 170.471 237.859C167.944 236.491 150.817 235.943 91.0146 235.396C49.1808 234.985 13.1026 235.122 10.9968 235.669Z" fill="black"/>
<path d="M1931.7 237.996C1929.32 239.501 1926.65 242.649 1925.67 245.112C1924.55 248.26 1924.12 309.435 1924.12 469.693C1924.12 712.065 1923.56 696.464 1932.83 702.075C1937.32 704.675 1939.71 704.812 2008.07 704.812C2084.86 704.812 2085.56 704.812 2090.76 697.148C2093.14 693.453 2093.28 683.736 2093.71 472.841C2093.99 319.836 2093.71 250.997 2092.58 247.439C2091.74 244.702 2089.21 240.87 2086.83 238.954L2082.48 235.396H2009.34C1939.85 235.396 1935.78 235.533 1931.7 237.996Z" fill="black"/>
</svg>
